<mxfile host="app.diagrams.net" agent="Mozilla/5.0 (Windows NT 10.0; Win64; x64) AppleWebKit/537.36 (KHTML, like Gecko) Chrome/138.0.0.0 Safari/537.36" version="28.0.7">
  <diagram name="Page-1" id="esHKNHzWkJ9_0SOadVc-">
    <mxGraphModel dx="1426" dy="785" grid="1" gridSize="10" guides="1" tooltips="1" connect="1" arrows="1" fold="1" page="1" pageScale="1" pageWidth="850" pageHeight="1100" math="0" shadow="0">
      <root>
        <mxCell id="0" />
        <mxCell id="1" parent="0" />
        <mxCell id="rLjOsNj7oPqrwzDv_NQB-1" value="Start" style="ellipse;whiteSpace=wrap;html=1;labelBackgroundColor=none;" parent="1" vertex="1">
          <mxGeometry x="180" y="30" width="80" height="40" as="geometry" />
        </mxCell>
        <mxCell id="rLjOsNj7oPqrwzDv_NQB-12" style="edgeStyle=orthogonalEdgeStyle;rounded=0;orthogonalLoop=1;jettySize=auto;html=1;entryX=0.5;entryY=0;entryDx=0;entryDy=0;labelBackgroundColor=none;fontColor=default;" parent="1" source="rLjOsNj7oPqrwzDv_NQB-4" target="rLjOsNj7oPqrwzDv_NQB-7" edge="1">
          <mxGeometry relative="1" as="geometry" />
        </mxCell>
        <mxCell id="rLjOsNj7oPqrwzDv_NQB-4" value="Generate Token" style="shape=parallelogram;perimeter=parallelogramPerimeter;whiteSpace=wrap;html=1;fixedSize=1;labelBackgroundColor=none;" parent="1" vertex="1">
          <mxGeometry x="150" y="110" width="120" height="60" as="geometry" />
        </mxCell>
        <mxCell id="rLjOsNj7oPqrwzDv_NQB-11" style="edgeStyle=orthogonalEdgeStyle;rounded=0;orthogonalLoop=1;jettySize=auto;html=1;labelBackgroundColor=none;fontColor=default;" parent="1" source="rLjOsNj7oPqrwzDv_NQB-7" edge="1">
          <mxGeometry relative="1" as="geometry">
            <mxPoint x="110" y="250" as="targetPoint" />
          </mxGeometry>
        </mxCell>
        <mxCell id="rLjOsNj7oPqrwzDv_NQB-16" value="N" style="edgeLabel;html=1;align=center;verticalAlign=middle;resizable=0;points=[];labelBackgroundColor=none;" parent="rLjOsNj7oPqrwzDv_NQB-11" vertex="1" connectable="0">
          <mxGeometry x="-0.2615" y="2" relative="1" as="geometry">
            <mxPoint as="offset" />
          </mxGeometry>
        </mxCell>
        <mxCell id="rLjOsNj7oPqrwzDv_NQB-60" style="edgeStyle=orthogonalEdgeStyle;rounded=0;orthogonalLoop=1;jettySize=auto;html=1;labelBackgroundColor=none;fontColor=default;" parent="1" source="rLjOsNj7oPqrwzDv_NQB-7" edge="1">
          <mxGeometry relative="1" as="geometry">
            <mxPoint x="308" y="250" as="targetPoint" />
          </mxGeometry>
        </mxCell>
        <mxCell id="rLjOsNj7oPqrwzDv_NQB-61" value="Y" style="edgeLabel;html=1;align=center;verticalAlign=middle;resizable=0;points=[];labelBackgroundColor=none;" parent="rLjOsNj7oPqrwzDv_NQB-60" vertex="1" connectable="0">
          <mxGeometry x="-0.149" y="-1" relative="1" as="geometry">
            <mxPoint as="offset" />
          </mxGeometry>
        </mxCell>
        <mxCell id="rLjOsNj7oPqrwzDv_NQB-7" value="is generated?" style="rhombus;whiteSpace=wrap;html=1;labelBackgroundColor=none;" parent="1" vertex="1">
          <mxGeometry x="165" y="200" width="90" height="100" as="geometry" />
        </mxCell>
        <mxCell id="rLjOsNj7oPqrwzDv_NQB-94" style="edgeStyle=orthogonalEdgeStyle;rounded=0;orthogonalLoop=1;jettySize=auto;html=1;labelBackgroundColor=none;fontColor=default;" parent="1" source="rLjOsNj7oPqrwzDv_NQB-17" edge="1">
          <mxGeometry relative="1" as="geometry">
            <mxPoint x="498" y="50" as="targetPoint" />
          </mxGeometry>
        </mxCell>
        <mxCell id="rLjOsNj7oPqrwzDv_NQB-17" value="Balance Inquiry" style="shape=parallelogram;perimeter=parallelogramPerimeter;whiteSpace=wrap;html=1;fixedSize=1;labelBackgroundColor=none;" parent="1" vertex="1">
          <mxGeometry x="438" y="90" width="120" height="60" as="geometry" />
        </mxCell>
        <mxCell id="rLjOsNj7oPqrwzDv_NQB-92" style="edgeStyle=orthogonalEdgeStyle;rounded=0;orthogonalLoop=1;jettySize=auto;html=1;labelBackgroundColor=none;fontColor=default;" parent="1" source="rLjOsNj7oPqrwzDv_NQB-19" edge="1">
          <mxGeometry relative="1" as="geometry">
            <mxPoint x="488" y="300" as="targetPoint" />
          </mxGeometry>
        </mxCell>
        <mxCell id="rLjOsNj7oPqrwzDv_NQB-19" value="Cash In" style="shape=parallelogram;perimeter=parallelogramPerimeter;whiteSpace=wrap;html=1;fixedSize=1;labelBackgroundColor=none;" parent="1" vertex="1">
          <mxGeometry x="428" y="201" width="120" height="60" as="geometry" />
        </mxCell>
        <mxCell id="rLjOsNj7oPqrwzDv_NQB-75" style="edgeStyle=orthogonalEdgeStyle;rounded=0;orthogonalLoop=1;jettySize=auto;html=1;entryX=0.5;entryY=0;entryDx=0;entryDy=0;labelBackgroundColor=none;fontColor=default;" parent="1" source="rLjOsNj7oPqrwzDv_NQB-20" edge="1">
          <mxGeometry relative="1" as="geometry">
            <mxPoint x="473" y="450" as="targetPoint" />
          </mxGeometry>
        </mxCell>
        <mxCell id="rLjOsNj7oPqrwzDv_NQB-20" value="Debit" style="shape=parallelogram;perimeter=parallelogramPerimeter;whiteSpace=wrap;html=1;fixedSize=1;labelBackgroundColor=none;" parent="1" vertex="1">
          <mxGeometry x="413" y="330" width="120" height="60" as="geometry" />
        </mxCell>
        <mxCell id="rLjOsNj7oPqrwzDv_NQB-82" style="edgeStyle=orthogonalEdgeStyle;rounded=0;orthogonalLoop=1;jettySize=auto;html=1;exitX=0;exitY=0;exitDx=0;exitDy=60;exitPerimeter=0;entryX=1;entryY=0.75;entryDx=0;entryDy=0;labelBackgroundColor=none;fontColor=default;" parent="1" source="rLjOsNj7oPqrwzDv_NQB-21" target="rLjOsNj7oPqrwzDv_NQB-17" edge="1">
          <mxGeometry relative="1" as="geometry">
            <Array as="points">
              <mxPoint x="560" y="135" />
              <mxPoint x="560" y="132" />
            </Array>
          </mxGeometry>
        </mxCell>
        <mxCell id="rLjOsNj7oPqrwzDv_NQB-21" value="DigitalWallet" style="shape=cylinder3;whiteSpace=wrap;html=1;boundedLbl=1;backgroundOutline=1;size=15;labelBackgroundColor=none;" parent="1" vertex="1">
          <mxGeometry x="710" y="75" width="80" height="90" as="geometry" />
        </mxCell>
        <mxCell id="rLjOsNj7oPqrwzDv_NQB-56" style="edgeStyle=orthogonalEdgeStyle;rounded=0;orthogonalLoop=1;jettySize=auto;html=1;entryX=0.617;entryY=-0.05;entryDx=0;entryDy=0;entryPerimeter=0;labelBackgroundColor=none;fontColor=default;" parent="1" source="rLjOsNj7oPqrwzDv_NQB-1" target="rLjOsNj7oPqrwzDv_NQB-4" edge="1">
          <mxGeometry relative="1" as="geometry" />
        </mxCell>
        <mxCell id="rLjOsNj7oPqrwzDv_NQB-58" value="End" style="ellipse;whiteSpace=wrap;html=1;labelBackgroundColor=none;" parent="1" vertex="1">
          <mxGeometry x="30" y="230" width="80" height="40" as="geometry" />
        </mxCell>
        <mxCell id="rLjOsNj7oPqrwzDv_NQB-62" value="" style="endArrow=none;html=1;rounded=0;labelBackgroundColor=none;fontColor=default;" parent="1" edge="1">
          <mxGeometry width="50" height="50" relative="1" as="geometry">
            <mxPoint x="308" y="360" as="sourcePoint" />
            <mxPoint x="308" y="120" as="targetPoint" />
          </mxGeometry>
        </mxCell>
        <mxCell id="rLjOsNj7oPqrwzDv_NQB-64" value="" style="endArrow=classic;html=1;rounded=0;entryX=0;entryY=0.5;entryDx=0;entryDy=0;labelBackgroundColor=none;fontColor=default;" parent="1" target="rLjOsNj7oPqrwzDv_NQB-17" edge="1">
          <mxGeometry width="50" height="50" relative="1" as="geometry">
            <mxPoint x="308" y="120" as="sourcePoint" />
            <mxPoint x="398" y="280" as="targetPoint" />
          </mxGeometry>
        </mxCell>
        <mxCell id="rLjOsNj7oPqrwzDv_NQB-65" value="" style="endArrow=classic;html=1;rounded=0;entryX=0;entryY=0.5;entryDx=0;entryDy=0;labelBackgroundColor=none;fontColor=default;" parent="1" target="rLjOsNj7oPqrwzDv_NQB-19" edge="1">
          <mxGeometry width="50" height="50" relative="1" as="geometry">
            <mxPoint x="308" y="231" as="sourcePoint" />
            <mxPoint x="398" y="280" as="targetPoint" />
          </mxGeometry>
        </mxCell>
        <mxCell id="rLjOsNj7oPqrwzDv_NQB-66" value="" style="endArrow=classic;html=1;rounded=0;entryX=0;entryY=0.5;entryDx=0;entryDy=0;labelBackgroundColor=none;fontColor=default;" parent="1" target="rLjOsNj7oPqrwzDv_NQB-20" edge="1">
          <mxGeometry width="50" height="50" relative="1" as="geometry">
            <mxPoint x="308" y="360" as="sourcePoint" />
            <mxPoint x="398" y="380" as="targetPoint" />
          </mxGeometry>
        </mxCell>
        <mxCell id="rLjOsNj7oPqrwzDv_NQB-81" style="edgeStyle=orthogonalEdgeStyle;rounded=0;orthogonalLoop=1;jettySize=auto;html=1;entryX=0;entryY=0.5;entryDx=0;entryDy=0;entryPerimeter=0;labelBackgroundColor=none;fontColor=default;" parent="1" source="rLjOsNj7oPqrwzDv_NQB-17" target="rLjOsNj7oPqrwzDv_NQB-21" edge="1">
          <mxGeometry relative="1" as="geometry" />
        </mxCell>
        <mxCell id="rLjOsNj7oPqrwzDv_NQB-86" style="edgeStyle=orthogonalEdgeStyle;rounded=0;orthogonalLoop=1;jettySize=auto;html=1;exitX=0;exitY=0;exitDx=0;exitDy=60;exitPerimeter=0;entryX=1;entryY=1;entryDx=0;entryDy=0;labelBackgroundColor=none;fontColor=default;" parent="1" source="rLjOsNj7oPqrwzDv_NQB-83" target="rLjOsNj7oPqrwzDv_NQB-19" edge="1">
          <mxGeometry relative="1" as="geometry" />
        </mxCell>
        <mxCell id="rLjOsNj7oPqrwzDv_NQB-83" value="DigitalWallet" style="shape=cylinder3;whiteSpace=wrap;html=1;boundedLbl=1;backgroundOutline=1;size=15;labelBackgroundColor=none;" parent="1" vertex="1">
          <mxGeometry x="710" y="190" width="80" height="90" as="geometry" />
        </mxCell>
        <mxCell id="rLjOsNj7oPqrwzDv_NQB-88" style="edgeStyle=orthogonalEdgeStyle;rounded=0;orthogonalLoop=1;jettySize=auto;html=1;exitX=0;exitY=0;exitDx=0;exitDy=60;exitPerimeter=0;entryX=1;entryY=0.75;entryDx=0;entryDy=0;labelBackgroundColor=none;fontColor=default;" parent="1" source="rLjOsNj7oPqrwzDv_NQB-84" target="rLjOsNj7oPqrwzDv_NQB-20" edge="1">
          <mxGeometry relative="1" as="geometry" />
        </mxCell>
        <mxCell id="rLjOsNj7oPqrwzDv_NQB-84" value="DigitalWallet" style="shape=cylinder3;whiteSpace=wrap;html=1;boundedLbl=1;backgroundOutline=1;size=15;labelBackgroundColor=none;" parent="1" vertex="1">
          <mxGeometry x="710" y="315" width="80" height="90" as="geometry" />
        </mxCell>
        <mxCell id="rLjOsNj7oPqrwzDv_NQB-85" style="edgeStyle=orthogonalEdgeStyle;rounded=0;orthogonalLoop=1;jettySize=auto;html=1;entryX=0;entryY=0.5;entryDx=0;entryDy=0;entryPerimeter=0;labelBackgroundColor=none;fontColor=default;" parent="1" source="rLjOsNj7oPqrwzDv_NQB-19" target="rLjOsNj7oPqrwzDv_NQB-83" edge="1">
          <mxGeometry relative="1" as="geometry" />
        </mxCell>
        <mxCell id="rLjOsNj7oPqrwzDv_NQB-87" style="edgeStyle=orthogonalEdgeStyle;rounded=0;orthogonalLoop=1;jettySize=auto;html=1;entryX=0;entryY=0.5;entryDx=0;entryDy=0;entryPerimeter=0;labelBackgroundColor=none;fontColor=default;" parent="1" source="rLjOsNj7oPqrwzDv_NQB-20" target="rLjOsNj7oPqrwzDv_NQB-84" edge="1">
          <mxGeometry relative="1" as="geometry" />
        </mxCell>
        <mxCell id="rLjOsNj7oPqrwzDv_NQB-89" value="End" style="ellipse;whiteSpace=wrap;html=1;labelBackgroundColor=none;" parent="1" vertex="1">
          <mxGeometry x="580" y="478" width="80" height="40" as="geometry" />
        </mxCell>
        <mxCell id="rLjOsNj7oPqrwzDv_NQB-90" value="A" style="text;html=1;align=center;verticalAlign=middle;resizable=0;points=[];autosize=1;strokeColor=none;fillColor=none;labelBackgroundColor=none;" parent="1" vertex="1">
          <mxGeometry x="605" y="448" width="30" height="30" as="geometry" />
        </mxCell>
        <mxCell id="rLjOsNj7oPqrwzDv_NQB-91" value="A" style="text;html=1;align=center;verticalAlign=middle;resizable=0;points=[];autosize=1;strokeColor=none;fillColor=none;labelBackgroundColor=none;" parent="1" vertex="1">
          <mxGeometry x="458" y="448" width="30" height="30" as="geometry" />
        </mxCell>
        <mxCell id="rLjOsNj7oPqrwzDv_NQB-93" value="A" style="text;html=1;align=center;verticalAlign=middle;resizable=0;points=[];autosize=1;strokeColor=none;fillColor=none;labelBackgroundColor=none;" parent="1" vertex="1">
          <mxGeometry x="473" y="297" width="30" height="30" as="geometry" />
        </mxCell>
        <mxCell id="rLjOsNj7oPqrwzDv_NQB-95" value="A" style="text;html=1;align=center;verticalAlign=middle;resizable=0;points=[];autosize=1;strokeColor=none;fillColor=none;labelBackgroundColor=none;" parent="1" vertex="1">
          <mxGeometry x="483" y="20" width="30" height="30" as="geometry" />
        </mxCell>
      </root>
    </mxGraphModel>
  </diagram>
</mxfile>
